<mxfile host="app.diagrams.net" modified="2022-04-29T10:27:20.933Z" agent="5.0 (Windows NT 10.0; WOW64) AppleWebKit/537.36 (KHTML, like Gecko) Chrome/78.0.3904.108 Safari/537.36" etag="jcfxdy9nXl3LWrNQSxJW" version="17.4.6" type="github">
  <diagram id="B2pCnlL2ag1ed6YWGhZP" name="Page-1">
    <mxGraphModel dx="1822" dy="762" grid="0" gridSize="10" guides="1" tooltips="1" connect="1" arrows="1" fold="1" page="0" pageScale="1" pageWidth="827" pageHeight="1169" math="0" shadow="0">
      <root>
        <mxCell id="0" />
        <mxCell id="1" parent="0" />
        <mxCell id="2ewJAN42HE4kEjio2p1u-46" value="" style="rounded=1;whiteSpace=wrap;html=1;strokeWidth=2;" parent="1" vertex="1">
          <mxGeometry x="-151.5" y="1197" width="381" height="296" as="geometry" />
        </mxCell>
        <mxCell id="2ewJAN42HE4kEjio2p1u-26" style="edgeStyle=orthogonalEdgeStyle;curved=1;rounded=0;orthogonalLoop=1;jettySize=auto;html=1;entryX=0.5;entryY=0;entryDx=0;entryDy=0;" parent="1" source="2ewJAN42HE4kEjio2p1u-18" target="2ewJAN42HE4kEjio2p1u-25" edge="1">
          <mxGeometry relative="1" as="geometry" />
        </mxCell>
        <mxCell id="2ewJAN42HE4kEjio2p1u-18" value="认证/授权" style="rounded=1;whiteSpace=wrap;html=1;dashed=1;strokeWidth=2;" parent="1" vertex="1">
          <mxGeometry x="171" y="356" width="164" height="87" as="geometry" />
        </mxCell>
        <mxCell id="2ewJAN42HE4kEjio2p1u-24" style="edgeStyle=orthogonalEdgeStyle;curved=1;rounded=0;orthogonalLoop=1;jettySize=auto;html=1;entryX=0.5;entryY=0;entryDx=0;entryDy=0;" parent="1" source="2ewJAN42HE4kEjio2p1u-17" target="2ewJAN42HE4kEjio2p1u-23" edge="1">
          <mxGeometry relative="1" as="geometry" />
        </mxCell>
        <mxCell id="2ewJAN42HE4kEjio2p1u-17" value="认证/授权" style="rounded=1;whiteSpace=wrap;html=1;dashed=1;strokeWidth=2;" parent="1" vertex="1">
          <mxGeometry x="-43" y="356" width="164" height="87" as="geometry" />
        </mxCell>
        <mxCell id="2ewJAN42HE4kEjio2p1u-22" style="edgeStyle=orthogonalEdgeStyle;curved=1;rounded=0;orthogonalLoop=1;jettySize=auto;html=1;" parent="1" source="2ewJAN42HE4kEjio2p1u-16" target="2ewJAN42HE4kEjio2p1u-21" edge="1">
          <mxGeometry relative="1" as="geometry" />
        </mxCell>
        <mxCell id="2ewJAN42HE4kEjio2p1u-16" value="认证/授权" style="rounded=1;whiteSpace=wrap;html=1;dashed=1;strokeWidth=2;" parent="1" vertex="1">
          <mxGeometry x="-257" y="356" width="164" height="87" as="geometry" />
        </mxCell>
        <mxCell id="2ewJAN42HE4kEjio2p1u-8" style="edgeStyle=orthogonalEdgeStyle;rounded=0;orthogonalLoop=1;jettySize=auto;html=1;curved=1;" parent="1" source="2ewJAN42HE4kEjio2p1u-4" target="2ewJAN42HE4kEjio2p1u-5" edge="1">
          <mxGeometry relative="1" as="geometry">
            <Array as="points">
              <mxPoint x="-170" y="168" />
            </Array>
          </mxGeometry>
        </mxCell>
        <mxCell id="2ewJAN42HE4kEjio2p1u-9" style="edgeStyle=orthogonalEdgeStyle;curved=1;rounded=0;orthogonalLoop=1;jettySize=auto;html=1;" parent="1" source="2ewJAN42HE4kEjio2p1u-4" target="2ewJAN42HE4kEjio2p1u-7" edge="1">
          <mxGeometry relative="1" as="geometry" />
        </mxCell>
        <mxCell id="2ewJAN42HE4kEjio2p1u-10" style="edgeStyle=orthogonalEdgeStyle;curved=1;rounded=0;orthogonalLoop=1;jettySize=auto;html=1;" parent="1" source="2ewJAN42HE4kEjio2p1u-4" target="2ewJAN42HE4kEjio2p1u-6" edge="1">
          <mxGeometry relative="1" as="geometry" />
        </mxCell>
        <mxCell id="2ewJAN42HE4kEjio2p1u-4" value="用户" style="shape=umlActor;verticalLabelPosition=bottom;verticalAlign=top;html=1;" parent="1" vertex="1">
          <mxGeometry x="19" y="137" width="40" height="61" as="geometry" />
        </mxCell>
        <mxCell id="2ewJAN42HE4kEjio2p1u-5" value="锦江汽车数字化统一管理平台&lt;br&gt;(巡游出租车)" style="rounded=1;whiteSpace=wrap;html=1;fillColor=#1ba1e2;fontColor=#ffffff;strokeColor=#006EAF;" parent="1" vertex="1">
          <mxGeometry x="-230" y="313.5" width="120" height="60" as="geometry" />
        </mxCell>
        <mxCell id="2ewJAN42HE4kEjio2p1u-6" value="锦江汽车数字化统一管理平台&lt;br&gt;(商务车)" style="rounded=1;whiteSpace=wrap;html=1;fillColor=#1ba1e2;fontColor=#ffffff;strokeColor=#006EAF;" parent="1" vertex="1">
          <mxGeometry x="-21" y="313.5" width="120" height="60" as="geometry" />
        </mxCell>
        <mxCell id="2ewJAN42HE4kEjio2p1u-7" value="锦江汽车数字化统一管理平台&lt;br&gt;(大客车)" style="rounded=1;whiteSpace=wrap;html=1;fillColor=#1ba1e2;fontColor=#ffffff;strokeColor=#006EAF;" parent="1" vertex="1">
          <mxGeometry x="193" y="313.5" width="120" height="60" as="geometry" />
        </mxCell>
        <mxCell id="2ewJAN42HE4kEjio2p1u-11" value="登录&lt;br&gt;（Login）" style="text;html=1;strokeColor=none;fillColor=none;align=center;verticalAlign=middle;whiteSpace=wrap;rounded=0;" parent="1" vertex="1">
          <mxGeometry x="-154" y="162" width="60" height="30" as="geometry" />
        </mxCell>
        <mxCell id="2ewJAN42HE4kEjio2p1u-14" value="登录&lt;br&gt;（Login）" style="text;html=1;strokeColor=none;fillColor=none;align=center;verticalAlign=middle;whiteSpace=wrap;rounded=0;" parent="1" vertex="1">
          <mxGeometry x="-21" y="233" width="60" height="30" as="geometry" />
        </mxCell>
        <mxCell id="2ewJAN42HE4kEjio2p1u-15" value="登录&lt;br&gt;（Login）" style="text;html=1;strokeColor=none;fillColor=none;align=center;verticalAlign=middle;whiteSpace=wrap;rounded=0;" parent="1" vertex="1">
          <mxGeometry x="190" y="168" width="60" height="30" as="geometry" />
        </mxCell>
        <mxCell id="2ewJAN42HE4kEjio2p1u-21" value="&lt;br&gt;&lt;br&gt;&lt;br&gt;&lt;br&gt;&lt;br&gt;&lt;br&gt;&lt;br&gt;数据库" style="shape=datastore;whiteSpace=wrap;html=1;strokeWidth=2;" parent="1" vertex="1">
          <mxGeometry x="-205" y="551" width="60" height="60" as="geometry" />
        </mxCell>
        <mxCell id="2ewJAN42HE4kEjio2p1u-23" value="&lt;br&gt;&lt;br&gt;&lt;br&gt;&lt;br&gt;&lt;br&gt;&lt;br&gt;&lt;br&gt;数据库" style="shape=datastore;whiteSpace=wrap;html=1;strokeWidth=2;" parent="1" vertex="1">
          <mxGeometry x="9" y="551" width="60" height="60" as="geometry" />
        </mxCell>
        <mxCell id="2ewJAN42HE4kEjio2p1u-25" value="&lt;br&gt;&lt;br&gt;&lt;br&gt;&lt;br&gt;&lt;br&gt;&lt;br&gt;&lt;br&gt;数据库" style="shape=datastore;whiteSpace=wrap;html=1;strokeWidth=2;" parent="1" vertex="1">
          <mxGeometry x="223" y="551" width="60" height="60" as="geometry" />
        </mxCell>
        <mxCell id="2ewJAN42HE4kEjio2p1u-28" value="" style="rounded=1;whiteSpace=wrap;html=1;dashed=1;strokeWidth=2;" parent="1" vertex="1">
          <mxGeometry x="171" y="966" width="164" height="87" as="geometry" />
        </mxCell>
        <mxCell id="2ewJAN42HE4kEjio2p1u-30" value="" style="rounded=1;whiteSpace=wrap;html=1;dashed=1;strokeWidth=2;" parent="1" vertex="1">
          <mxGeometry x="-43" y="966" width="164" height="87" as="geometry" />
        </mxCell>
        <mxCell id="2ewJAN42HE4kEjio2p1u-32" value="" style="rounded=1;whiteSpace=wrap;html=1;dashed=1;strokeWidth=2;" parent="1" vertex="1">
          <mxGeometry x="-257" y="966" width="164" height="87" as="geometry" />
        </mxCell>
        <mxCell id="2ewJAN42HE4kEjio2p1u-33" style="edgeStyle=orthogonalEdgeStyle;rounded=0;orthogonalLoop=1;jettySize=auto;html=1;curved=1;" parent="1" source="2ewJAN42HE4kEjio2p1u-36" target="2ewJAN42HE4kEjio2p1u-37" edge="1">
          <mxGeometry relative="1" as="geometry">
            <Array as="points">
              <mxPoint x="-170" y="778" />
            </Array>
          </mxGeometry>
        </mxCell>
        <mxCell id="2ewJAN42HE4kEjio2p1u-34" style="edgeStyle=orthogonalEdgeStyle;curved=1;rounded=0;orthogonalLoop=1;jettySize=auto;html=1;" parent="1" source="2ewJAN42HE4kEjio2p1u-36" target="2ewJAN42HE4kEjio2p1u-39" edge="1">
          <mxGeometry relative="1" as="geometry" />
        </mxCell>
        <mxCell id="2ewJAN42HE4kEjio2p1u-35" style="edgeStyle=orthogonalEdgeStyle;curved=1;rounded=0;orthogonalLoop=1;jettySize=auto;html=1;" parent="1" source="2ewJAN42HE4kEjio2p1u-36" target="2ewJAN42HE4kEjio2p1u-38" edge="1">
          <mxGeometry relative="1" as="geometry" />
        </mxCell>
        <mxCell id="2ewJAN42HE4kEjio2p1u-36" value="用户" style="shape=umlActor;verticalLabelPosition=bottom;verticalAlign=top;html=1;" parent="1" vertex="1">
          <mxGeometry x="19" y="747" width="40" height="61" as="geometry" />
        </mxCell>
        <mxCell id="2ewJAN42HE4kEjio2p1u-37" value="锦江汽车数字化统一管理平台&lt;br&gt;(巡游出租车)" style="rounded=1;whiteSpace=wrap;html=1;fillColor=#1ba1e2;fontColor=#ffffff;strokeColor=#006EAF;" parent="1" vertex="1">
          <mxGeometry x="-230" y="923.5" width="120" height="60" as="geometry" />
        </mxCell>
        <mxCell id="2ewJAN42HE4kEjio2p1u-38" value="锦江汽车数字化统一管理平台&lt;br&gt;(商务车)" style="rounded=1;whiteSpace=wrap;html=1;fillColor=#1ba1e2;fontColor=#ffffff;strokeColor=#006EAF;" parent="1" vertex="1">
          <mxGeometry x="-21" y="923.5" width="120" height="60" as="geometry" />
        </mxCell>
        <mxCell id="2ewJAN42HE4kEjio2p1u-39" value="锦江汽车数字化统一管理平台&lt;br&gt;(大客车)" style="rounded=1;whiteSpace=wrap;html=1;fillColor=#1ba1e2;fontColor=#ffffff;strokeColor=#006EAF;" parent="1" vertex="1">
          <mxGeometry x="193" y="923.5" width="120" height="60" as="geometry" />
        </mxCell>
        <mxCell id="2ewJAN42HE4kEjio2p1u-40" value="登录&lt;br&gt;（Login）" style="text;html=1;strokeColor=none;fillColor=none;align=center;verticalAlign=middle;whiteSpace=wrap;rounded=0;" parent="1" vertex="1">
          <mxGeometry x="-154" y="772" width="60" height="30" as="geometry" />
        </mxCell>
        <mxCell id="2ewJAN42HE4kEjio2p1u-41" value="登录&lt;br&gt;（Login）" style="text;html=1;strokeColor=none;fillColor=none;align=center;verticalAlign=middle;whiteSpace=wrap;rounded=0;" parent="1" vertex="1">
          <mxGeometry x="-21" y="843" width="60" height="30" as="geometry" />
        </mxCell>
        <mxCell id="2ewJAN42HE4kEjio2p1u-42" value="登录&lt;br&gt;（Login）" style="text;html=1;strokeColor=none;fillColor=none;align=center;verticalAlign=middle;whiteSpace=wrap;rounded=0;" parent="1" vertex="1">
          <mxGeometry x="190" y="778" width="60" height="30" as="geometry" />
        </mxCell>
        <mxCell id="2ewJAN42HE4kEjio2p1u-45" value="&lt;br&gt;&lt;br&gt;&lt;br&gt;&lt;br&gt;&lt;br&gt;&lt;br&gt;&lt;br&gt;数据库" style="shape=datastore;whiteSpace=wrap;html=1;strokeWidth=2;" parent="1" vertex="1">
          <mxGeometry x="9" y="1376" width="60" height="60" as="geometry" />
        </mxCell>
        <mxCell id="2ewJAN42HE4kEjio2p1u-48" style="edgeStyle=orthogonalEdgeStyle;curved=1;rounded=0;orthogonalLoop=1;jettySize=auto;html=1;" parent="1" source="2ewJAN42HE4kEjio2p1u-47" target="2ewJAN42HE4kEjio2p1u-45" edge="1">
          <mxGeometry relative="1" as="geometry" />
        </mxCell>
        <mxCell id="2ewJAN42HE4kEjio2p1u-47" value="统一认证授权服务" style="rounded=1;whiteSpace=wrap;html=1;dashed=1;strokeWidth=2;fontStyle=1;fontSize=16;" parent="1" vertex="1">
          <mxGeometry x="-43" y="1223" width="164" height="87" as="geometry" />
        </mxCell>
        <mxCell id="2ewJAN42HE4kEjio2p1u-52" style="rounded=0;orthogonalLoop=1;jettySize=auto;html=1;fontSize=16;" parent="1" source="2ewJAN42HE4kEjio2p1u-49" target="2ewJAN42HE4kEjio2p1u-47" edge="1">
          <mxGeometry relative="1" as="geometry" />
        </mxCell>
        <mxCell id="2ewJAN42HE4kEjio2p1u-49" value="调用" style="text;html=1;strokeColor=#10739e;fillColor=#b1ddf0;align=center;verticalAlign=middle;whiteSpace=wrap;rounded=0;fontSize=16;" parent="1" vertex="1">
          <mxGeometry x="-211" y="1012" width="60" height="30" as="geometry" />
        </mxCell>
        <mxCell id="2ewJAN42HE4kEjio2p1u-53" style="edgeStyle=none;rounded=0;orthogonalLoop=1;jettySize=auto;html=1;fontSize=16;" parent="1" source="2ewJAN42HE4kEjio2p1u-50" target="2ewJAN42HE4kEjio2p1u-47" edge="1">
          <mxGeometry relative="1" as="geometry" />
        </mxCell>
        <mxCell id="2ewJAN42HE4kEjio2p1u-50" value="调用" style="text;html=1;strokeColor=#10739e;fillColor=#b1ddf0;align=center;verticalAlign=middle;whiteSpace=wrap;rounded=0;fontSize=16;" parent="1" vertex="1">
          <mxGeometry x="9" y="1015" width="60" height="30" as="geometry" />
        </mxCell>
        <mxCell id="2ewJAN42HE4kEjio2p1u-54" style="edgeStyle=none;rounded=0;orthogonalLoop=1;jettySize=auto;html=1;entryX=0.75;entryY=0;entryDx=0;entryDy=0;fontSize=16;" parent="1" source="2ewJAN42HE4kEjio2p1u-51" target="2ewJAN42HE4kEjio2p1u-47" edge="1">
          <mxGeometry relative="1" as="geometry" />
        </mxCell>
        <mxCell id="2ewJAN42HE4kEjio2p1u-51" value="调用" style="text;html=1;strokeColor=#10739e;fillColor=#b1ddf0;align=center;verticalAlign=middle;whiteSpace=wrap;rounded=0;fontSize=16;" parent="1" vertex="1">
          <mxGeometry x="226" y="1012" width="60" height="30" as="geometry" />
        </mxCell>
      </root>
    </mxGraphModel>
  </diagram>
</mxfile>
